<svg xmlns="http://www.w3.org/2000/svg" xml:space="preserve" x="0" y="0" viewBox="0 0 326.8 326.8"><style>.st2{fill:#333}</style><circle cx="163.4" cy="163.4" r="163.4" fill="#fff"/><path d="M169.5 213.5v-20.7h-51.7l-4.7-20.8 55.2-65.7H198v64.4h13.5v22H198v20.7h-28.5zM144 171h25.5v-30.7L144 171zM124.2 84.7h-18.6V43.6h20c5 .1 8.6 1.5 10.7 4.4 1.3 1.7 1.9 3.8 1.9 6.3s-.6 4.5-1.9 6c-.7.9-1.7 1.6-3.1 2.3 2.1.8 3.7 2 4.8 3.6 1.1 1.7 1.6 3.7 1.6 6 0 2.4-.6 4.6-1.8 6.5-.8 1.3-1.8 2.4-2.9 3.2-1.3 1-2.9 1.7-4.7 2.1-2 .5-3.9.7-6 .7zm4.1-25.9c1.1-.7 1.7-1.9 1.7-3.6 0-1.9-.7-3.2-2.2-3.8-1.3-.4-2.9-.6-4.9-.6h-9v9.1H124c1.7-.1 3.1-.4 4.3-1.1zm-4.3 7.8h-10.2v11h10.1c1.8 0 3.2-.2 4.2-.7 1.8-.9 2.7-2.6 2.7-5.1 0-2.1-.9-3.6-2.6-4.4-1-.5-2.4-.8-4.2-.8zm46.8 2.3V43.6h8.7v25.3c0 4.4-.7 7.8-2 10.2-2.5 4.5-7.3 6.7-14.5 6.7-7.1 0-11.9-2.2-14.5-6.7-1.4-2.4-2-5.8-2-10.2V43.6h8.7v25.3c0 2.8.3 4.9 1 6.2 1 2.3 3.3 3.5 6.8 3.5s5.7-1.2 6.8-3.5c.6-1.3 1-3.4 1-6.2zm50.4-25.3-13.7 25.6v15.4h-8.6V69.3l-14.2-25.6h10.1l8.5 17.9 8.2-17.9h9.7v-.1zM78.2 241h8.5v41.1h-8.5V241zm46.9 0v7.3h-12.3v33.8h-8.6v-33.8H91.8V241h33.3zm33.8 23.1h-20v10.6h22.7v7.4h-31.1V241h30.1v7.3h-21.7v8.7h20v7.1zm17.6 18h-8V241H181l7.5 32.3 7.4-32.3h12.3v41.1h-8v-34.5l-7.8 34.5h-8.3l-7.7-34.5v34.5h.1zm55.2-5.9c2 0 3.7-.2 4.9-.7 2.4-.9 3.6-2.4 3.6-4.8 0-1.4-.6-2.4-1.8-3.1s-3.1-1.4-5.6-1.9l-4.3-1c-4.3-1-7.2-2-8.9-3.1-2.8-1.9-4.2-4.9-4.2-8.9 0-3.7 1.3-6.7 4-9.2 2.7-2.4 6.6-3.7 11.8-3.7 4.3 0 8 1.1 11.1 3.4 3.1 2.3 4.7 5.6 4.8 10H239c-.1-2.5-1.2-4.2-3.2-5.3-1.3-.7-3-1-5-1-2.2 0-4 .4-5.3 1.3-1.3.9-2 2.1-2 3.7 0 1.5.7 2.6 2 3.3.8.5 2.6 1 5.4 1.7l7.1 1.7c3.1.7 5.4 1.7 7 3 2.5 1.9 3.7 4.7 3.7 8.4 0 3.8-1.4 6.9-4.3 9.4s-6.9 3.7-12.2 3.7c-5.4 0-9.6-1.2-12.6-3.7-3.1-2.4-4.6-5.8-4.6-10.1h8.2c.3 1.9.8 3.3 1.5 4.2 1.3 1.8 3.7 2.7 7 2.7z" class="st2"/></svg>